<svg width="920" height="760" viewBox="0 0 920 760" fill="none" xmlns="http://www.w3.org/2000/svg">
  <rect width="920" height="760" rx="48" fill="#111827"/>
  <circle cx="742" cy="126" r="110" fill="#C9A54C" fill-opacity="0.18"/>
  <circle cx="160" cy="632" r="138" fill="#C9A54C" fill-opacity="0.12"/>
  <rect x="88" y="94" width="744" height="572" rx="34" fill="#F8FAFC"/>
  <rect x="88" y="94" width="744" height="84" rx="34" fill="#0F172A"/>
  <rect x="126" y="126" width="172" height="18" rx="9" fill="#F8FAFC" fill-opacity="0.92"/>
  <rect x="566" y="122" width="88" height="26" rx="13" fill="#1F2937"/>
  <rect x="668" y="122" width="124" height="26" rx="13" fill="#C9A54C"/>
  <rect x="128" y="220" width="220" height="398" rx="26" fill="#FFFFFF"/>
  <rect x="152" y="252" width="96" height="14" rx="7" fill="#0F172A"/>
  <rect x="152" y="284" width="152" height="10" rx="5" fill="#94A3B8"/>
  <rect x="152" y="330" width="172" height="66" rx="18" fill="#F8FAFC"/>
  <rect x="170" y="350" width="22" height="22" rx="11" fill="#C9A54C"/>
  <path d="M177 361L184 368L196 355" stroke="#111827" stroke-width="3.5" stroke-linecap="round" stroke-linejoin="round"/>
  <rect x="208" y="354" width="94" height="10" rx="5" fill="#111827"/>
  <rect x="208" y="372" width="72" height="8" rx="4" fill="#94A3B8"/>
  <rect x="152" y="414" width="172" height="66" rx="18" fill="#F8FAFC"/>
  <rect x="170" y="434" width="22" height="22" rx="11" fill="#111827"/>
  <path d="M177 445L184 452L196 439" stroke="#C9A54C" stroke-width="3.5" stroke-linecap="round" stroke-linejoin="round"/>
  <rect x="208" y="438" width="98" height="10" rx="5" fill="#111827"/>
  <rect x="208" y="456" width="64" height="8" rx="4" fill="#94A3B8"/>
  <rect x="152" y="498" width="172" height="88" rx="18" fill="#111827"/>
  <rect x="172" y="522" width="114" height="12" rx="6" fill="#F8FAFC"/>
  <rect x="172" y="548" width="84" height="10" rx="5" fill="#CBD5E1"/>
  <rect x="384" y="220" width="412" height="214" rx="26" fill="#FFFFFF"/>
  <rect x="416" y="254" width="134" height="14" rx="7" fill="#0F172A"/>
  <rect x="416" y="286" width="202" height="10" rx="5" fill="#94A3B8"/>
  <rect x="418" y="332" width="344" height="10" rx="5" fill="#E2E8F0"/>
  <rect x="418" y="366" width="286" height="10" rx="5" fill="#E2E8F0"/>
  <rect x="418" y="400" width="236" height="10" rx="5" fill="#E2E8F0"/>
  <rect x="384" y="462" width="412" height="156" rx="26" fill="#FFFFFF"/>
  <rect x="416" y="494" width="146" height="14" rx="7" fill="#0F172A"/>
  <rect x="416" y="530" width="50" height="54" rx="16" fill="#111827"/>
  <rect x="482" y="512" width="50" height="72" rx="16" fill="#C9A54C"/>
  <rect x="548" y="548" width="50" height="36" rx="16" fill="#CBD5E1"/>
  <rect x="614" y="522" width="50" height="62" rx="16" fill="#111827" fill-opacity="0.78"/>
  <rect x="680" y="500" width="50" height="84" rx="16" fill="#C9A54C" fill-opacity="0.82"/>
</svg>
